{"title":"Journey 2 The Mysterious Island 2012 CAM READNFO XViD-26K","uid":7015652,"size":1101804687,"categoryP":"video","categoryS":"movies","magnet":"?xt=urn:btih:3b008bdc965262d32b3db524b284b7fda8efc1e5&amp;dn=Journey+2+The+Mysterious+Island+2012+CAM+READNFO+XViD-26K&amp;tr=udp%3A%2F%2Ftracker.openbittorrent.com%3A80&amp;tr=udp%3A%2F%2Fopen.demonii.com%3A1337&amp;tr=udp%3A%2F%2Ftracker.coppersurfer.tk%3A6969&amp;tr=udp%3A%2F%2Fexodus.desync.com%3A6969","seeders":0,"leechers":1,"uploader":"HeroMaster","files":-1,"time":1328643775,"description":"Journey 2 The Mysterious Island 2012 CAM READNFO XViD-26K\n\nImdb: &lt;a href=&quot;\nhttp://www.imdb.com/title/tt1397514/&quot; rel=&quot;nofollow&quot; target=&quot;_NEW&quot;&gt;\nhttp://www.imdb.com/title/tt1397514/&lt;/a&gt;\n\nPlot:\nSean Anderson partners with his mom's boyfriend on a mission to find his grandfather, who is thought to be missing on a mythical island.\n\nSources:\nVIDEO- THNXS M8!\nAUDIO-THNXS M8!\n\nNotes:\n\nFIRST OF ALL A MESSAGE TO THE LEAKER....\n&quot;GO AND SUCK YOUR SELF YOU TINY NOOB..&quot; IF YOU ARE READING THIS...NO NEED TO \nLEAK THIS ON A SITE WHICH I WILL NOT MENTION...\n\nTHIS IS HERE WAY WAY EARLY BECAUSE IT WAS LEAKED.....NOT HAPPY AT ALL... \nPROBABLY THE LAST CAM I DO FOR A WHILE...\n\nREADNFO well this is why&gt;&gt;&gt;\n\nthe source was stretched so i fixed this.. and opted to set the resolution to 720x320 looks much nicer!!\non to the video . it was very dark so added bit of brightness and sauturation \nand other filters to it to make it look nice!\nthe audio is given by a special friend of mine .. and it was very noisy!!.. so \nran a few noise filters on it, now it sounds nearly perfect just the occasional laughter from the cinema and the occasional loud hiss at a few places which only lasts for 2-3 secs! \nwill do a v2 once i get new and better audio.. until then here it is..with all \nthat been said bottom line not bad for a first cam.. so like i always say... take it or leave it!\n\nGreetz:\nXtreme Encode|FYA|ILLUMANTI|CM8|RX|VISION|HDSCENE|NIGHTMAREZ|xTriLL|DTRG|CRYS|REMIXHD|\nBIDA|RX|REFILL|INSPiRAL|SIC|ZOMBIESZ|HOPE|Anonymous|GooN\nTo all the people who have helped me  you know who you are\n\nAnything to offer email us @: &lt;a class=&quot;__cf_email__&quot; href=&quot;/cdn-cgi/l/email-protection&quot; data-cfemail=&quot;1b292d705b736e6873767a727735767e&quot;&gt;[email&amp;#160;protected]&lt;/a&gt;&lt;script cf-hash='f9e31' type=&quot;text/javascript&quot;&gt;\n/* &lt;![CDATA[ */!function(){try{var t=&quot;currentScript&quot;in document?document.currentScript:function(){for(var t=document.getElementsByTagName(&quot;script&quot;),e=t.length;e--;)if(t[e].getAttribute(&quot;cf-hash&quot;))return t[e]}();if(t&amp;&amp;t.previousSibling){var e,r,n,i,c=t.previousSibling,a=c.getAttribute(&quot;data-cfemail&quot;);if(a){for(e=&quot;&quot;,r=parseInt(a.substr(0,2),16),n=2;a.length-n;n+=2)i=parseInt(a.substr(n,2),16)^r,e+=String.fromCharCode(i);e=document.createTextNode(e),c.parentNode.replaceChild(e,c)}}}catch(u){}}();/* ]]&gt; */&lt;/script&gt;\n\nVideo\nID                                       : 0\nFormat                                   : MPEG-4 Visual\nFormat profile                           : Advanced Simple@L5\nFormat settings, BVOP                    : 2\nFormat settings, QPel                    : No\nFormat settings, GMC                     : No warppoints\nFormat settings, Matrix                  : Default (H.263)\nMuxing mode                              : Packed bitstream\nCodec ID                                 : XVID\nCodec ID/Hint                            : XviD\nDuration                                 : 1h 29mn\nBit rate                                 : 1 500 Kbps\nWidth                                    : 720 pixels\nHeight                                   : 320 pixels\nDisplay aspect ratio                     : 2.25:1\nFrame rate                               : 29.970 fps\nColor space                              : YUV\nChroma subsampling                       : 4:2:0\nBit depth                                : 8 bits\nScan type                                : Progressive\nCompression mode                         : Lossy\nBits/(Pixel*Frame)                       : 0.217\nStream size                              : 957 MiB (92%)\nWriting library                          : XviD 1.1.2 (UTC 2006-11-01)\n\nAudio\nID                                       : 1\nFormat                                   : MPEG Audio\nFormat version                           : Version 1\nFormat profile                           : Layer 3\nCodec ID                                 : 55\nCodec ID/Hint                            : MP3\nDuration                                 : 1h 29mn\nBit rate mode                            : Constant\nBit rate                                 : 128 Kbps\nChannel(s)                               : 2 channels\nSampling rate                            : 44.1 KHz\nCompression mode                         : Lossy\nDelay relative to video                  : 1s 500ms\nStream size                              : 81.7 MiB (8%)\nAlignment                                : Split accross interleaves\nInterleave, duration                     : 16367 ms (490.53 video frames)\n\n\nPoster:\n\n &lt;a href=&quot;\nhttp://i.imgur.com/mD03i.jpg&quot; rel=&quot;nofollow&quot; target=&quot;_NEW&quot;&gt;\nhttp://i.imgur.com/mD03i.jpg&lt;/a&gt;\n\n\nScreens:\n\n &lt;a href=&quot;\nhttp://i.imgur.com/eTt3E.png&quot; rel=&quot;nofollow&quot; target=&quot;_NEW&quot;&gt;\nhttp://i.imgur.com/eTt3E.png&lt;/a&gt;\n\n &lt;a href=&quot;\nhttp://i.imgur.com/zAUxp.png&quot; rel=&quot;nofollow&quot; target=&quot;_NEW&quot;&gt;\nhttp://i.imgur.com/zAUxp.png&lt;/a&gt;\n\n &lt;a href=&quot;\nhttp://i.imgur.com/RbERf.png&quot; rel=&quot;nofollow&quot; target=&quot;_NEW&quot;&gt;\nhttp://i.imgur.com/RbERf.png&lt;/a&gt;\n\n\nENJOY!","torrent":{"xt":"urn:btih:3b008bdc965262d32b3db524b284b7fda8efc1e5","amp;dn":"Journey+2+The+Mysterious+Island+2012+CAM+READNFO+XViD-26K","amp;tr":["udp%3A%2F%2Ftracker.openbittorrent.com%3A80","udp%3A%2F%2Fopen.demonii.com%3A1337","udp%3A%2F%2Ftracker.coppersurfer.tk%3A6969","udp%3A%2F%2Fexodus.desync.com%3A6969"],"infoHash":"3b008bdc965262d32b3db524b284b7fda8efc1e5","infoHashBuffer":{"type":"Buffer","data":[59,0,139,220,150,82,98,211,43,61,181,36,178,132,183,253,168,239,193,229]},"announce":[],"urlList":[]}}